<svg xmlns="http://www.w3.org/2000/svg" xmlns:xlink="http://www.w3.org/1999/xlink">
	<defs>
		<symbol id="logo" viewBox="0 0 101 37">
			<path d=" M8.2 36.3C6.56667 36.3 5.1 36.1 3.8 35.7C2.5 35.3333 1.3 34.8667 0.2 34.3L0.25 28.35H0.75L2.45 31.35C3.18333
			32.6833 3.98333 33.6833 4.85 34.35C5.75 34.9833 6.88333 35.3 8.25 35.3C9.85 35.3 11.1333 34.95 12.1
			34.25C13.1 33.5167 13.6 32.55 13.6 31.35C13.6 30.25 13.25 29.35 12.55 28.65C11.85 27.95 10.55 27.3167 8.65
			26.75L6.55 26.1C4.51667 25.5 2.91667 24.5667 1.75 23.3C0.583333 22.0333 0 20.4833 0 18.65C0 16.45 0.866667
			14.5833 2.6 13.05C4.33333 11.5167 6.81667 10.75 10.05 10.75C11.35 10.75 12.5667 10.9 13.7 11.2C14.8667
			11.4667 15.9833 11.8833 17.05 12.45L16.75 17.85H16.25L14.5 14.75C13.8667 13.65 13.2333 12.8833 12.6 12.45C12
			11.9833 11.0833 11.75 9.85 11.75C8.71667 11.75 7.65 12.0667 6.65 12.7C5.65 13.3333 5.15 14.2333 5.15
			15.4C5.15 16.5333 5.56667 17.4333 6.4 18.1C7.26667 18.7667 8.53333 19.3833 10.2 19.95L12.45 20.6C14.85
			21.3333 16.5667 22.35 17.6 23.65C18.6333 24.9167 19.15 26.45 19.15 28.25C19.15 30.6833 18.1833 32.6333 16.25
			34.1C14.35 35.5667 11.6667 36.3 8.2 36.3Z" />
			<path
				d="M22.1773 36.7L21.1273 35.9L23.2773 33.25C22.044 32.1167 21.094 30.7333 20.4273 29.1C19.794 27.4333 19.4773 25.55 19.4773 23.45C19.4773 20.85 20.0107 18.6 21.0773 16.7C22.1773 14.8 23.6607 13.3333 25.5273 12.3C27.394 11.2667 29.5107 10.75 31.8773 10.75C34.8107 10.75 37.3273 11.5167 39.4273 13.05L41.5773 10.35L42.5773 11.15L40.4273 13.85C41.6273 14.95 42.5607 16.3167 43.2273 17.95C43.9273 19.55 44.2773 21.3833 44.2773 23.45C44.2773 26.0833 43.7607 28.3667 42.7273 30.3C41.7273 32.2 40.294 33.6833 38.4273 34.75C36.594 35.7833 34.4107 36.3 31.8773 36.3C28.8773 36.3 26.344 35.55 24.2773 34.05L22.1773 36.7ZM26.7773 23.55C26.7773 25.5167 26.8607 27.1833 27.0273 28.55L36.4773 16.7C36.144 14.9 35.594 13.6333 34.8273 12.9C34.0607 12.1333 33.0773 11.75 31.8773 11.75C30.6773 11.75 29.694 12.1167 28.9273 12.85C28.194 13.55 27.644 14.7667 27.2773 16.5C26.944 18.2 26.7773 20.55 26.7773 23.55ZM31.8773 35.3C33.0773 35.3 34.044 34.95 34.7773 34.25C35.544 33.5167 36.094 32.3 36.4273 30.6C36.794 28.8667 36.9773 26.5167 36.9773 23.55C36.9773 21.55 36.894 19.85 36.7273 18.45L27.2773 30.35C27.6107 32.15 28.1607 33.4333 28.9273 34.2C29.694 34.9333 30.6773 35.3 31.8773 35.3Z" />
			<path
				d="M44.4547 35.55V35.05L45.1047 34.9C45.738 34.7 46.238 34.4 46.6047 34C46.9714 33.6 47.1547 33.0667 47.1547 32.4C47.1547 31.1667 47.1547 29.95 47.1547 28.75C47.188 27.5167 47.2047 26.2833 47.2047 25.05V12.5H44.4047V11.95L45.5047 11.75C46.2047 11.65 46.688 11.4167 46.9547 11.05C47.2214 10.65 47.438 10.1 47.6047 9.4C47.938 8.1 48.4214 6.96667 49.0547 6C49.7214 5 50.4714 4.08333 51.3047 3.25C52.5714 2.05 53.9047 1.21667 55.3047 0.749999C56.738 0.25 58.138 0 59.5047 0C60.3714 0 61.2047 0.133334 62.0047 0.400001C62.838 0.633333 63.5047 1.01667 64.0047 1.55C64.538 2.05 64.8047 2.71667 64.8047 3.55C64.8047 4.45 64.538 5.16667 64.0047 5.7C63.5047 6.2 62.7547 6.45 61.7547 6.45C60.9547 6.45 60.2214 6.23333 59.5547 5.8C58.888 5.36667 58.238 4.6 57.6047 3.5L56.9047 2.65C56.538 2.15 56.1547 1.91667 55.7547 1.95C55.388 1.98333 55.138 2.26667 55.0047 2.8C54.7714 4 54.588 5.38333 54.4547 6.95C54.3547 8.48333 54.3047 10 54.3047 11.5H62.6547C63.3547 11.5 63.838 11.3167 64.1047 10.95C64.3714 10.55 64.588 10.0333 64.7547 9.4C65.088 8.1 65.5714 6.96667 66.2047 6C66.8714 5 67.6214 4.08333 68.4547 3.25C69.7214 2.05 71.0547 1.21667 72.4547 0.749999C73.888 0.25 75.288 0 76.6547 0C77.5547 0 78.4047 0.133334 79.2047 0.400001C80.0047 0.633333 80.6714 1.01667 81.2047 1.55C81.738 2.05 82.0047 2.71667 82.0047 3.55C82.0047 4.45 81.738 5.16667 81.2047 5.7C80.6714 6.2 79.9047 6.45 78.9047 6.45C78.1047 6.45 77.3714 6.23333 76.7047 5.8C76.038 5.36667 75.388 4.6 74.7547 3.5L74.0547 2.65C73.688 2.15 73.3214 1.91667 72.9547 1.95C72.588 1.98333 72.3214 2.26667 72.1547 2.8C71.9213 4 71.738 5.38333 71.6047 6.95C71.5047 8.48333 71.4547 10 71.4547 11.5H77.0547V12.5H71.4547V25.05C71.4547 26.25 71.4547 27.4667 71.4547 28.7C71.4547 29.9 71.4547 31.1 71.4547 32.3C71.488 33.5667 72.1714 34.3833 73.5047 34.75L74.7547 35.05V35.55H61.6047V35.05L62.2547 34.9C62.888 34.7 63.388 34.4 63.7547 34C64.1214 33.6 64.3214 33.0667 64.3547 32.4C64.3547 31.1667 64.3547 29.95 64.3547 28.75C64.3547 27.5167 64.3547 26.2833 64.3547 25.05V12.5H54.3047V25.05C54.3047 26.25 54.3047 27.4667 54.3047 28.7C54.3047 29.9 54.3047 31.1 54.3047 32.3C54.338 33.5667 55.0047 34.3833 56.3047 34.75L57.5547 35.05V35.55H44.4547Z" />
			<path
				d="M83.4809 36.3C81.5475 36.3 79.9142 35.75 78.5809 34.65C77.2809 33.55 76.6309 31.9667 76.6309 29.9C76.6309 28.3333 77.4309 26.9 79.0309 25.6C80.6309 24.2667 83.1475 23.2667 86.5809 22.6C87.1142 22.5 87.7142 22.4 88.3809 22.3C89.0475 22.1667 89.7475 22.0333 90.4809 21.9V17.95C90.4809 15.6833 90.1975 14.1 89.6309 13.2C89.0975 12.2667 88.2475 11.8 87.0809 11.8C86.2809 11.8 85.6475 12.0667 85.1809 12.6C84.7142 13.1 84.4142 13.9833 84.2809 15.25L84.1809 15.8C84.1142 17.2333 83.7642 18.2833 83.1309 18.95C82.4975 19.6167 81.7142 19.95 80.7809 19.95C79.9142 19.95 79.1975 19.6833 78.6309 19.15C78.0642 18.6167 77.7809 17.9 77.7809 17C77.7809 15.6333 78.2475 14.4833 79.1809 13.55C80.1475 12.6167 81.4142 11.9167 82.9809 11.45C84.5475 10.9833 86.2475 10.75 88.0809 10.75C91.0475 10.75 93.3309 11.4833 94.9309 12.95C96.5642 14.3833 97.3809 16.7333 97.3809 20V31.05C97.3809 32.55 98.0809 33.3 99.4809 33.3H100.581L101.031 33.7C100.398 34.5 99.6975 35.1167 98.9309 35.55C98.1975 35.9833 97.1475 36.2 95.7809 36.2C94.3142 36.2 93.1475 35.8667 92.2809 35.2C91.4475 34.5 90.8975 33.5833 90.6309 32.45C89.6309 33.5167 88.5975 34.4333 87.5309 35.2C86.4975 35.9333 85.1475 36.3 83.4809 36.3ZM86.5309 33.25C87.1975 33.25 87.8142 33.1 88.3809 32.8C88.9809 32.4667 89.6809 31.9667 90.4809 31.3V22.9C90.1475 22.9667 89.8142 23.0333 89.4809 23.1C89.1475 23.1667 88.7642 23.2333 88.3309 23.3C86.7975 23.7 85.5642 24.3833 84.6309 25.35C83.7309 26.2833 83.2809 27.55 83.2809 29.15C83.2809 30.5167 83.5975 31.55 84.2309 32.25C84.8642 32.9167 85.6309 33.25 86.5309 33.25Z" />
		</symbol>
		<symbol id="arrow-drop-down" viewBox="0 0 24 24">
			<path d="M7 9.5L12 14.5L17 9.5H7Z" />
		</symbol>
		<symbol id="arrow-drop-up" viewBox="0 0 24 24">
			<path d="M7 14.5L12 9.5L17 14.5H7Z" />
		</symbol>
		<symbol id="arrow-forward" viewBox="0 0 24 24">
			<path d="M12 4L10.59 5.41L16.17 11H4V13H16.17L10.59 18.59L12 20L20 12L12 4Z" />
		</symbol>
		<symbol id="call-made" viewBox="0 0 24 24">
			<path d="M9.5 4.5V6.5H16.09L4.5 18.09L5.91 19.5L17.5 7.91V14.5H19.5V4.5H9.5Z" />
		</symbol>
		<symbol id="close" viewBox="0 0 24 24">
			<path
				d="M19 6.41L17.59 5L12 10.59L6.41 5L5 6.41L10.59 12L5 17.59L6.41 19L12 13.41L17.59 19L19 17.59L13.41 12L19 6.41Z" />
		</symbol>
		<symbol id="expand-more" viewBox="0 0 24 24">
			<path d="M16.59 8.29498L12 12.875L7.41 8.29498L6 9.70498L12 15.705L18 9.70498L16.59 8.29498Z" />
		</symbol>
		<symbol id="nav" viewBox="0 0 24 22">
			<path fill-rule="evenodd" d="M24 22H0V20H24V22Z" clip-rule="evenodd" />
			<path fill-rule="evenodd" d="M24 12H0V10H24V12Z" clip-rule="evenodd" />
			<path fill-rule="evenodd" d="M24 2H0V0H24V2Z" clip-rule="evenodd" />
		</symbol>
		<symbol id="ruler" viewBox="0 0 24 24">
			<path fill-rule="evenodd"
				d="M3 6H21C22.1 6 23 6.9 23 8V16C23 17.1 22.1 18 21 18H3C1.9 18 1 17.1 1 16V8C1 6.9 1.9 6 3 6ZM3 16H21V8H19V12H17V8H15V12H13V8H11V12H9V8H7V12H5V8H3V16Z"
				clip-rule="evenodd" />
		</symbol>
		<symbol id="search" viewBox="0 0 24 24">
			<path fill-rule="evenodd"
				d="M14.965 14.255H15.755L20.745 19.255L19.255 20.745L14.255 15.755V14.965L13.985 14.685C12.845 15.665 11.365 16.255 9.755 16.255C6.165 16.255 3.255 13.345 3.255 9.755C3.255 6.165 6.165 3.255 9.755 3.255C13.345 3.255 16.255 6.165 16.255 9.755C16.255 11.365 15.665 12.845 14.685 13.985L14.965 14.255ZM5.255 9.755C5.255 12.245 7.26501 14.255 9.755 14.255C12.245 14.255 14.255 12.245 14.255 9.755C14.255 7.26501 12.245 5.255 9.755 5.255C7.26501 5.255 5.255 7.26501 5.255 9.755Z"
				clip-rule="evenodd" />
		</symbol>
		<symbol id="twitter" viewBox="0 0 20 20">
			<path fill-rule="evenodd"
				d="M19.1196 2.64064L20.5343 2.81458L19.8984 4.15635C19.5882 4.81068 19.2778 5.465 18.9671 6.11933C18.9302 6.25792 18.8655 6.37941 18.7697 6.53759C18.7297 6.60368 18.5929 6.81393 18.5865 6.82402C18.5504 6.88102 18.5237 6.92596 18.5045 6.96198V9.47657C18.5045 15.9111 12.5895 20 7.00355 20C5.86052 20 4.99207 19.9423 3.99765 19.7139C2.36115 19.3379 1.14328 18.5906 0.585974 17.2844L0.0122107 15.9397L1.40659 15.8047C2.66801 15.6826 3.76169 15.4296 4.60159 15.0908C2.29577 14.7004 1.0036 13.6342 1.0036 11.632V10.5792H2.0036C2.22331 10.5792 2.42143 10.5604 2.59855 10.526C0.868002 9.43669 0.00122176 7.68924 0.00122176 5.26547C0.00103266 5.16217 0.00103266 5.16217 0.000442551 5.05171C-0.00605857 3.83002 0.0562722 3.17724 0.373948 2.3441C0.577544 1.81015 0.871832 1.31584 1.2679 0.862925L2.02251 0L2.75618 0.882717C5.17395 3.79168 7.56396 5.55649 10.0042 5.76996C10.0146 3.08573 11.9415 1.05438 14.5044 1.05438C15.6991 1.05438 16.7828 1.5318 17.6345 2.39267C18.1006 2.4935 18.5957 2.57623 19.1196 2.64064ZM16.9086 4.37951L16.6021 4.30646L16.3904 4.06199C15.8784 3.47087 15.2359 3.15831 14.5043 3.15831C13.0414 3.15831 12.0041 4.25522 12.0041 5.78909C12.0041 6.03977 11.998 6.19728 11.9683 6.4043C11.8499 7.23038 11.4096 7.89372 10.5041 7.89372C7.50605 7.89372 4.80134 6.20359 2.16388 3.31695C2.02791 3.7519 1.99593 4.199 2.0004 5.03747C2.001 5.14962 2.001 5.14962 2.00121 5.26294C2.00121 7.41808 2.83092 8.59692 4.79545 9.254L5.49254 9.48716V10.2569C5.49254 11.1903 4.6522 12.0689 3.42267 12.4625C3.9863 12.9124 5.13899 13.1553 7.00388 13.1553H8.00388V14.2076C8.00388 15.7153 6.3576 16.8958 3.87073 17.5122C4.68177 17.7737 5.76164 17.8864 7.00353 17.8864C11.618 17.8864 16.5045 14.5099 16.5045 9.47219V6.8414C16.5045 6.53225 16.5897 6.26391 16.7311 5.9849C16.7865 5.87581 16.8474 5.7718 16.9225 5.65319C16.9367 5.63086 16.9892 5.54994 17.0309 5.48526L17.1101 5.31846C17.2385 5.04819 17.3669 4.77791 17.4952 4.50764C17.2958 4.46788 17.1003 4.42518 16.9086 4.37951Z"
				clip-rule="evenodd" />
		</symbol>
		<symbol id="instagram" viewBox="0 0 20 20">
			<path fill-rule="evenodd"
				d="M14 0.194336H6C2.68629 0.194336 0 2.88063 0 6.19434V14.1943C0 17.508 2.68629 20.1943 6 20.1943H14C17.3137 20.1943 20 17.508 20 14.1943V6.19434C20 2.88063 17.3137 0.194336 14 0.194336ZM2 6.19449C2 3.98528 3.79086 2.19436 6 2.19436H14C16.2091 2.19436 18 3.98528 18 6.19449V14.1948C18 16.404 16.2091 18.1949 14 18.1949H6C3.79086 18.1949 2 16.404 2 14.1948V6.19449ZM10 15.181C7.23858 15.181 5 12.9423 5 10.1807C5 7.41907 7.23858 5.18036 10 5.18036C12.7614 5.18036 15 7.41907 15 10.1807C15 12.9423 12.7614 15.181 10 15.181ZM10 13.1811C11.6569 13.1811 13 11.8376 13 10.1802C13 8.52278 11.6569 7.1792 10 7.1792C8.34315 7.1792 7 8.52278 7 10.1802C7 11.8376 8.34315 13.1811 10 13.1811ZM16 5.19385C16 5.74628 15.5523 6.19412 15 6.19412C14.4477 6.19412 14 5.74628 14 5.19385C14 4.64142 14.4477 4.19359 15 4.19359C15.5523 4.19359 16 4.64142 16 5.19385Z"
				clip-rule="evenodd" />
		</symbol>
		<symbol id="facebook" viewBox="0 0 20 20">
			<path fill-rule="evenodd"
				d="M2 0H18C19.1046 0 20 0.89543 20 2V18C20 19.1046 19.1046 20 18 20H2C0.89543 20 0 19.1046 0 18V2C0 0.89543 0.89543 0 2 0ZM2 2.00085V18.0001H18V2.00085H2ZM9.13306 10.0052H11V16.0003H13V10.0052H14.9824V8.00535H13V7.00104C13 6.4488 13.4477 6.00113 14 6.00113H15V4.0013H14C12.3431 4.0013 11 5.34433 11 7.00104V8.00535H9.13306V10.0052Z"
				clip-rule="evenodd" />
		</symbol>
		<symbol id="local-shipping" viewBox="0 0 24 24">
			<path fill-rule="evenodd"
				d="M20 8H17V4H3C1.9 4 1 4.9 1 6V17H3C3 18.66 4.34 20 6 20C7.66 20 9 18.66 9 17H15C15 18.66 16.34 20 18 20C19.66 20 21 18.66 21 17H23V12L20 8ZM19.5 9.5L21.46 12H17V9.5H19.5ZM5 17C5 17.55 5.45 18 6 18C6.55 18 7 17.55 7 17C7 16.45 6.55 16 6 16C5.45 16 5 16.45 5 17ZM8.22 15C7.67 14.39 6.89 14 6 14C5.11 14 4.33 14.39 3.78 15H3V6H15V15H8.22ZM17 17C17 17.55 17.45 18 18 18C18.55 18 19 17.55 19 17C19 16.45 18.55 16 18 16C17.45 16 17 16.45 17 17Z"
				clip-rule="evenodd" />
		</symbol>
		<symbol id="armchairs" viewBox="0 0 47 40">
			<path d="M0 31.4726V40H1.94462V33.4632H44.6053V40H46.55V31.4726H0Z" />
			<path
				d="M38.2153 24.1926V29.788C38.2153 30.4081 38.7155 30.9124 39.3305 30.9124H44.8832C45.4942 30.9124 45.9944 30.4081 45.9944 29.788V7.80221C45.9944 7.18213 45.4942 6.67839 44.8832 6.67839H39.3305C38.7155 6.67839 38.2153 7.18213 38.2153 7.80221V20.7522V24.1926Z" />
			<path
				d="M35.9923 23.0682H10.5576C9.94658 23.0682 9.44643 23.5726 9.44643 24.1926V29.788C9.44643 30.4081 9.94658 30.9124 10.5576 30.9124H35.9923C36.6039 30.9124 37.1041 30.4081 37.1041 29.788V24.1926C37.1041 23.5726 36.6039 23.0682 35.9923 23.0682Z" />
			<path
				d="M14.5404 17.5552C14.8216 17.5552 15.0512 17.7867 15.0512 18.0702C15.0512 18.3582 14.8216 18.5858 14.5404 18.5858C14.2587 18.5858 14.0291 18.3582 14.0291 18.0702C14.0291 17.7867 14.2587 17.5552 14.5404 17.5552ZM14.5404 12.8899C14.8216 12.8899 15.0512 13.1215 15.0512 13.4055C15.0512 13.689 14.8216 13.9205 14.5404 13.9205C14.2587 13.9205 14.0291 13.689 14.0291 13.4055C14.0291 13.1215 14.2587 12.8899 14.5404 12.8899ZM14.5404 8.22074C14.8216 8.22074 15.0512 8.45227 15.0512 8.73633C15.0512 9.02378 14.8216 9.25192 14.5404 9.25192C14.2587 9.25192 14.0291 9.02378 14.0291 8.73633C14.0291 8.45227 14.2587 8.22074 14.5404 8.22074ZM14.5404 3.55549C14.8216 3.55549 15.0512 3.78705 15.0512 4.07111C15.0512 4.35517 14.8216 4.5867 14.5404 4.5867C14.2587 4.5867 14.0291 4.35517 14.0291 4.07111C14.0291 3.78705 14.2587 3.55549 14.5404 3.55549ZM20.3748 17.5552C20.656 17.5552 20.8857 17.7867 20.8857 18.0702C20.8857 18.3582 20.656 18.5858 20.3748 18.5858C20.0931 18.5858 19.8635 18.3582 19.8635 18.0702C19.8635 17.7867 20.0931 17.5552 20.3748 17.5552ZM20.3748 12.8899C20.656 12.8899 20.8857 13.1215 20.8857 13.4055C20.8857 13.689 20.656 13.9205 20.3748 13.9205C20.0931 13.9205 19.8635 13.689 19.8635 13.4055C19.8635 13.1215 20.0931 12.8899 20.3748 12.8899ZM20.3748 8.22074C20.656 8.22074 20.8857 8.45227 20.8857 8.73633C20.8857 9.02378 20.656 9.25192 20.3748 9.25192C20.0931 9.25192 19.8635 9.02378 19.8635 8.73633C19.8635 8.45227 20.0931 8.22074 20.3748 8.22074ZM20.3748 3.55549C20.656 3.55549 20.8857 3.78705 20.8857 4.07111C20.8857 4.35517 20.656 4.5867 20.3748 4.5867C20.0931 4.5867 19.8635 4.35517 19.8635 4.07111C19.8635 3.78705 20.0931 3.55549 20.3748 3.55549ZM26.2054 17.5552C26.4904 17.5552 26.7201 17.7867 26.7201 18.0702C26.7201 18.3582 26.4904 18.5858 26.2054 18.5858C25.9236 18.5858 25.694 18.3582 25.694 18.0702C25.694 17.7867 25.9236 17.5552 26.2054 17.5552ZM26.2054 12.8899C26.4904 12.8899 26.7201 13.1215 26.7201 13.4055C26.7201 13.689 26.4904 13.9205 26.2054 13.9205C25.9236 13.9205 25.694 13.689 25.694 13.4055C25.694 13.1215 25.9236 12.8899 26.2054 12.8899ZM26.2054 8.22074C26.4904 8.22074 26.7201 8.45227 26.7201 8.73633C26.7201 9.02378 26.4904 9.25192 26.2054 9.25192C25.9236 9.25192 25.694 9.02378 25.694 8.73633C25.694 8.45227 25.9236 8.22074 26.2054 8.22074ZM26.2054 3.55549C26.4904 3.55549 26.7201 3.78705 26.7201 4.07111C26.7201 4.35517 26.4904 4.5867 26.2054 4.5867C25.9236 4.5867 25.694 4.35517 25.694 4.07111C25.694 3.78705 25.9236 3.55549 26.2054 3.55549ZM32.0398 17.5552C32.3215 17.5552 32.5511 17.7867 32.5511 18.0702C32.5511 18.3582 32.3215 18.5858 32.0398 18.5858C31.7586 18.5858 31.529 18.3582 31.529 18.0702C31.529 17.7867 31.7586 17.5552 32.0398 17.5552ZM32.0398 12.8899C32.3215 12.8899 32.5511 13.1215 32.5511 13.4055C32.5511 13.689 32.3215 13.9205 32.0398 13.9205C31.7586 13.9205 31.529 13.689 31.529 13.4055C31.529 13.1215 31.7586 12.8899 32.0398 12.8899ZM32.0398 8.22074C32.3215 8.22074 32.5511 8.45227 32.5511 8.73633C32.5511 9.02378 32.3215 9.25192 32.0398 9.25192C31.7586 9.25192 31.529 9.02378 31.529 8.73633C31.529 8.45227 31.7586 8.22074 32.0398 8.22074ZM32.0398 3.55549C32.3215 3.55549 32.5511 3.78705 32.5511 4.07111C32.5511 4.35517 32.3215 4.5867 32.0398 4.5867C31.7586 4.5867 31.529 4.35517 31.529 4.07111C31.529 3.78705 31.7586 3.55549 32.0398 3.55549ZM10.5576 21.8765H35.9923C36.6039 21.8765 37.1041 21.3722 37.1041 20.7521V7.80227V1.12434C37.1041 0.504271 36.6039 -4.19617e-05 35.9923 -4.19617e-05H10.5576C9.94658 -4.19617e-05 9.44643 0.504271 9.44643 1.12434V7.80227V20.7521C9.44643 21.3722 9.94658 21.8765 10.5576 21.8765Z" />
			<path
				d="M8.33523 29.788V7.80221C8.33523 7.18213 7.83508 6.67839 7.2201 6.67839H1.66738C1.05577 6.67839 0.555618 7.18213 0.555618 7.80221V29.788C0.555618 30.4081 1.05577 30.9124 1.66738 30.9124H7.2201C7.83508 30.9124 8.33523 30.4081 8.33523 29.788Z" />
		</symbol>
		<symbol id="two-seat-sofas" viewBox="0 0 117 50">
			<path
				d="M57.7402 28.1967V23.0569C57.7402 22.656 57.3186 22.3344 56.7996 22.3344H56.503H14.8258H14.529C14.0101 22.3344 13.5881 22.656 13.5881 23.0569V28.1881C13.5881 28.2893 13.6167 28.3906 13.6622 28.4791C13.7137 28.5624 13.7821 28.6416 13.8676 28.7082C14.0387 28.8401 14.2724 28.9193 14.5348 28.9193H56.7996C57.3186 28.9193 57.7402 28.5976 57.7402 28.1967Z" />
			<path
				d="M59.4515 23.0569V28.1967C59.4515 28.5976 59.8731 28.9193 60.3921 28.9193H102.657C103.182 28.9193 103.603 28.5937 103.603 28.1881V23.0569C103.603 22.656 103.182 22.3344 102.668 22.3344H102.371H60.6887H60.3921C59.8731 22.3344 59.4515 22.656 59.4515 23.0569Z" />
			<path
				d="M60.6887 21.0143H102.371C103.051 21.0143 103.603 20.5828 103.603 20.0588V8.21908V0.955696C103.603 0.427608 103.051 0.000104904 102.371 0.000104904H60.6887C60.0042 0.000104904 59.4515 0.427608 59.4515 0.955696V20.0588C59.4515 20.5828 60.0042 21.0143 60.6887 21.0143Z" />
			<path
				d="M14.8258 21.0143H56.503C57.1875 21.0143 57.7402 20.5828 57.7402 20.0588V0.955696C57.7402 0.427608 57.1875 0.000104904 56.503 0.000104904H14.8258C14.1414 0.000104904 13.5881 0.427608 13.5881 0.955696V8.21908V20.0588C13.5881 20.5828 14.1414 21.0143 14.8258 21.0143Z" />
			<path
				d="M105.194 28.797C105.143 28.9249 105.074 29.0481 104.995 29.1667C105.08 29.0481 105.148 28.9249 105.194 28.797Z" />
			<path
				d="M103.928 29.995C104.379 29.8052 104.75 29.5195 104.995 29.1711C104.744 29.5148 104.373 29.8012 103.928 29.995Z" />
			<path
				d="M103.922 29.9954C103.769 30.0565 103.609 30.1096 103.444 30.1487C103.609 30.1135 103.769 30.0611 103.922 29.9954Z" />
			<path
				d="M13.8676 28.7087C13.7821 28.6422 13.7137 28.5629 13.6622 28.4797C13.7137 28.5676 13.7821 28.6468 13.8676 28.7087Z" />
			<path
				d="M13.7478 30.1487C13.5824 30.1096 13.4228 30.0565 13.2689 29.9954C13.4228 30.0611 13.5824 30.1135 13.7478 30.1487Z" />
			<path
				d="M12.1969 29.1711C12.442 29.5195 12.8125 29.8052 13.2631 29.995C12.8183 29.8012 12.4478 29.5148 12.1969 29.1711Z" />
			<path
				d="M12.1969 29.1667C12.1171 29.0481 12.0487 28.9249 11.9971 28.797C12.0429 28.9249 12.1113 29.0481 12.1969 29.1667Z" />
			<path
				d="M116.245 7.48695H106.266C105.741 7.48695 105.314 7.81725 105.314 8.21815V28.1885C105.314 28.4002 105.274 28.6067 105.194 28.7965C105.148 28.9243 105.08 29.0476 104.995 29.1661C104.995 29.1661 104.989 29.1661 104.995 29.1707C104.75 29.519 104.379 29.8047 103.928 29.9945C103.922 29.9899 103.922 29.9945 103.922 29.9945C103.769 30.0604 103.609 30.1131 103.444 30.1484C103.198 30.2103 102.931 30.2409 102.657 30.2409H14.5348C14.261 30.2409 13.9929 30.2103 13.7477 30.1484C13.5824 30.1131 13.4227 30.0604 13.2688 29.9945C13.2688 29.9945 13.2688 29.9899 13.2631 29.9945C12.8125 29.8047 12.442 29.519 12.1969 29.1707C12.2026 29.1661 12.1969 29.1661 12.1969 29.1661C12.1113 29.0476 12.0429 28.9243 11.9972 28.7965C11.9173 28.6067 11.8776 28.4002 11.8776 28.1885V8.21815C11.8776 7.81725 11.4499 7.48695 10.9253 7.48695H0.946283C0.427363 7.48695 0 7.81725 0 8.21815V38.0238C0 38.4294 0.427363 38.7597 0.946283 38.7597H7.93735V41.0718H8.94666L10.4632 50.0001H14.9965L16.519 41.0718H17.5283V38.7597H99.6685V41.0718H100.672L102.195 50.0001H106.729L108.251 41.0718H109.255V38.7597H116.245C116.77 38.7597 117.191 38.4294 117.191 38.0238V8.21815C117.191 7.81725 116.77 7.48695 116.245 7.48695Z" />
		</symbol>
		<symbol id="three-seat-sofas" viewBox="0 0 176 50">
			<path
				d="M120.117 22.0529H159.841C161.195 22.0529 162.298 21.1499 162.298 20.0414V12.7767V2.01155C162.298 0.903057 161.195 5.91278e-05 159.841 5.91278e-05H120.117C118.758 5.91278e-05 117.661 0.903057 117.661 2.01155V20.0414C117.661 21.1499 118.758 22.0529 120.117 22.0529Z" />
			<path
				d="M16.1235 22.0529H67.285C68.6387 22.0529 69.7416 21.1499 69.7416 20.0414V2.01155C69.7416 0.903057 68.6387 5.91278e-05 67.285 5.91278e-05H16.1235C14.769 5.91278e-05 13.6662 0.903057 13.6662 2.01155V12.7767V20.0414C13.6662 21.1499 14.769 22.0529 16.1235 22.0529Z" />
			<path
				d="M174.265 11.8467H165.071C165.055 11.8467 165.044 11.8467 165.028 11.8514C164.121 11.8649 163.39 12.4773 163.39 13.2235V43.6232C163.39 43.905 163.494 44.1686 163.674 44.3876C163.974 44.7587 164.487 45 165.071 45H174.265C175.194 45 175.947 44.3829 175.947 43.6232V13.2235C175.947 12.4638 175.194 11.8467 174.265 11.8467Z" />
			<path
				d="M10.8753 11.8467H1.68145C1.66577 11.8467 1.65421 11.8467 1.63853 11.8514C0.732184 11.8649 0 12.4773 0 13.2235V43.6232C0 43.905 0.104022 44.1686 0.283971 44.3876C0.584435 44.7587 1.09786 45 1.68145 45H10.8753C11.804 45 12.5576 44.3829 12.5576 43.6232V13.2235C12.5576 12.4638 11.804 11.8467 10.8753 11.8467Z" />
			<path
				d="M162.298 23.1661C162.358 23.1302 162.418 23.0944 162.473 23.0545C162.418 23.014 162.358 22.9829 162.298 22.9558V23.1661Z" />
			<path
				d="M73.8366 22.0529H113.566C114.919 22.0529 116.022 21.1499 116.022 20.0414V2.01155C116.022 0.903057 114.919 5.91278e-05 113.566 5.91278e-05H73.8366C72.482 5.91278e-05 71.3792 0.903057 71.3792 2.01155V20.0414C71.3792 21.1499 72.482 22.0529 73.8366 22.0529Z" />
			<path
				d="M160.844 23.1659H15.1206C14.3208 23.1659 13.6662 23.7019 13.6662 24.3569V32.2697C13.6662 32.924 14.3208 33.4601 15.1206 33.4601H160.844C161.643 33.4601 162.298 32.924 162.298 32.2697V24.3569C162.298 23.7019 161.643 23.1659 160.844 23.1659Z" />
			<path
				d="M160.844 34.7059H15.1206C14.3208 34.7059 13.6662 35.2419 13.6662 35.8969V43.8097C13.6662 44.464 14.3208 45 15.1206 45H160.844C161.643 45 162.298 44.464 162.298 43.8097V35.8969C162.298 35.2419 161.643 34.7059 160.844 34.7059Z" />
		</symbol>
		<symbol id="living-room" viewBox="0 0 500 350">
			<path
				d="M286.951 345.728C287.503 344.633 287.566 343.513 287.724 342.419C288.447 337.466 288.656 332.473 288.856 327.48C288.951 325.086 288.973 322.689 288.982 320.294C288.985 319.49 288.966 318.65 288.277 318.039C287.23 317.108 286.061 316.405 284.664 316.128C283.625 315.921 283.525 315.996 283.648 317.083C284.379 323.568 284.931 330.067 285.367 336.579C285.527 338.966 285.718 341.36 286.193 343.714C286.329 344.388 286.361 345.12 286.951 345.728ZM220.803 231.283C220.617 231.141 220.412 231.181 220.217 231.239C213.204 233.339 206.611 236.299 200.707 240.682C199.635 241.479 198.674 242.392 197.832 243.428C197.443 243.907 197.101 244.421 196.895 245.002C196.588 245.866 196.823 246.26 197.735 246.367C198.133 246.416 198.551 246.367 198.953 246.314C200.287 246.136 201.532 245.652 202.745 245.112C209.638 242.047 215.478 237.571 220.436 231.924C220.601 231.736 220.8 231.559 220.803 231.283ZM186.642 221.769C186.629 218.332 185.816 215.306 184.258 212.483C182.005 208.397 178.606 205.867 173.988 204.952C172.918 204.74 172.16 204.994 171.37 205.727C166.554 210.192 165.307 215.749 166.496 221.944C167.28 226.038 169.386 229.433 172.773 231.973C174.248 233.077 175.928 233.719 177.73 233.866C180.85 234.123 182.996 232.512 184.463 229.927C185.928 227.344 186.529 224.513 186.642 221.769ZM314.761 223.047C314.817 221.609 314.643 220.187 314.388 218.787C313.778 215.423 312.123 212.711 308.878 211.386C305.524 210.014 299.642 210.106 296.165 214.116C294.913 215.559 293.853 217.094 293.173 218.88C291.83 222.415 291.368 226.114 291.553 229.845C291.841 235.609 294.939 239.417 301.651 240.719C304.777 241.326 307.86 240.729 310.947 240.294C311.575 240.208 311.769 239.783 311.901 239.261C312.2 238.075 312.518 236.895 312.807 235.708C313.817 231.543 314.645 227.347 314.761 223.047ZM279.391 232.433C278.777 232.294 278.287 232.171 277.791 232.076C272.718 231.095 267.615 230.304 262.507 229.52C250.617 227.693 238.751 227.779 226.879 229.63C226.173 229.739 225.682 230.011 225.242 230.595C221.88 235.081 217.946 238.997 213.382 242.278C209.67 244.948 205.773 247.262 201.406 248.715C200.125 249.14 198.827 249.355 197.481 249.261C194.728 249.074 193.263 246.987 194.04 244.347C194.301 243.459 194.763 242.663 195.323 241.923C196.475 240.403 197.879 239.149 199.417 238.026C206.032 233.199 213.436 230.05 221.303 227.951C222.748 227.566 223.564 226.835 224.236 225.591C226.55 221.31 227.057 216.685 226.976 211.943C226.921 208.687 226.212 205.569 224.806 202.62C222.291 197.341 218.307 193.908 212.414 192.954C209.418 192.47 206.403 192.509 203.378 192.778C193.876 193.623 185.09 196.555 177.036 201.657C176.765 201.829 176.408 201.937 176.31 202.288C176.408 202.38 176.438 202.431 176.482 202.448C176.813 202.577 177.148 202.698 177.481 202.824C181.091 204.191 184.012 206.461 186.067 209.706C189.782 215.574 190.728 221.869 188.338 228.446C187.631 230.395 187.519 232.297 187.537 234.284C187.593 240.407 187.877 246.523 188.103 252.642C188.256 256.739 188.787 260.761 189.583 264.777C190.818 271.004 194.375 275.502 199.752 278.659C202.76 280.428 205.983 281.744 209.361 282.637C215.562 284.275 221.884 285.232 228.26 285.804C235 286.408 241.748 286.668 248.501 285.992C257.704 285.071 264.396 280.545 268.454 272.211C269.865 269.312 271.028 266.317 271.96 263.238C275.007 253.17 277.075 242.865 279.391 232.433ZM315.081 239.134C315.595 239.208 315.932 239.082 316.278 238.994C318.859 238.325 321.344 237.368 323.802 236.361C331.417 233.24 338.72 229.62 344.553 223.593C347.033 221.027 349.104 218.205 350.489 214.922C353.068 208.81 350.949 202.021 345.393 198.372C342.664 196.579 339.716 195.26 336.494 194.776C331.401 194.013 326.286 194.146 321.187 194.864C315.64 195.646 310.502 197.631 305.605 200.252C296.938 204.893 290.357 211.511 286.451 220.621C284.148 225.99 282.552 231.579 281.307 237.269C279.377 246.09 277.482 254.918 274.888 263.582C273.802 267.205 272.484 270.744 270.754 274.113C266.858 281.705 260.793 286.554 252.376 288.33C249.163 289.009 245.887 289.246 242.609 289.286C232.799 289.4 223.08 288.51 213.455 286.602C208.508 285.621 203.735 284.137 199.291 281.729C193.533 278.61 189.234 274.194 187.371 267.789C186.245 263.911 185.544 259.933 185.358 255.889C185.05 249.209 184.634 242.533 184.704 235.841C184.706 235.506 184.827 235.126 184.476 234.794C184.06 234.798 183.788 235.135 183.458 235.343C182.364 236.028 181.202 236.535 179.911 236.725C176.637 237.212 173.699 236.311 171.095 234.406C161.842 227.64 161.001 214.522 166.514 206.709C166.697 206.452 167.056 206.25 166.911 205.679C163.586 207.105 161.215 209.319 160.21 212.789C159.192 216.303 159.341 219.854 160.072 223.399C160.782 226.834 162.282 229.978 163.828 233.08C165.898 237.236 166.837 241.616 166.96 246.221C167.035 249.029 167.317 251.825 167.737 254.602C168.661 260.719 170.193 266.695 172 272.608C173.492 277.486 175.26 282.284 176.307 287.289C176.884 290.046 177.201 292.82 176.901 295.651C176.542 299.041 175.443 302.215 174.2 305.35C171.962 310.996 169.685 316.626 167.443 322.27C166.783 323.932 166.214 325.628 165.873 327.387C165.736 328.092 165.553 328.822 165.833 329.578C166.535 329.302 166.806 328.786 167.147 328.356C168.292 326.907 169.184 325.294 170.097 323.699C172.864 318.863 175.189 313.805 177.641 308.81C178.384 307.297 179.168 305.804 179.982 304.33C180.8 302.845 181.505 302.637 183.149 303.248C184.204 303.638 185.258 304.031 186.328 304.381C192.018 306.239 197.771 307.924 203.594 309.275C217.919 312.595 232.362 315.187 247.128 315.576C253.023 315.73 258.912 315.842 264.768 315.09C269.588 314.471 274.382 313.661 279.194 312.962C279.759 312.88 279.962 312.617 280.057 312.094C280.494 309.678 281.852 307.797 283.599 306.147C284.68 305.125 285.876 304.244 287.072 303.371C290.673 300.742 293.282 297.336 295.155 293.329C296.587 290.27 297.729 287.099 298.714 283.879C302.299 272.172 305.979 260.491 309.285 248.698C309.767 246.984 310.256 245.273 310.753 243.522C309.946 243.268 309.244 243.477 308.547 243.566C305.737 243.925 302.905 244.102 300.146 243.394C293.301 241.635 289.622 237.757 288.83 231.621C288.162 226.436 288.75 221.284 291.057 216.519C293.569 211.339 297.578 208.104 303.579 207.75C311.792 207.264 315.871 212.219 317.129 217.605C317.475 219.096 317.604 220.627 317.633 222.164C317.73 227.163 316.697 231.999 315.532 236.819C315.356 237.549 315.032 238.257 315.081 239.134ZM226.764 226.65C229.321 226.371 231.554 226.145 233.785 225.882C240.012 225.146 246.251 225.098 252.497 225.536C261.296 226.15 269.982 227.527 278.581 229.485C278.83 229.541 279.084 229.58 279.33 229.648C279.955 229.817 280.236 229.578 280.419 228.956C280.89 227.339 281.435 225.744 281.958 224.145C286.318 210.823 295.178 201.651 307.876 195.884C316.104 192.148 324.69 190.914 333.627 191.521C335.306 191.635 336.964 191.872 338.697 192.208C338.897 190.108 339.142 188.089 339.274 186.06C339.833 177.38 342.271 169.219 346.006 161.401C346.908 159.512 347.751 157.596 348.466 155.625C350.866 148.996 350.713 142.397 348.112 135.882C346.547 131.965 343.809 128.846 340.774 125.983C335.839 121.331 329.741 118.866 323.389 116.904C318.135 115.28 312.711 114.518 307.272 113.871C302.139 113.26 297.01 112.633 291.859 112.159C287.83 111.789 283.793 111.543 279.751 111.425C270.534 111.154 261.315 111.152 252.099 111.432C245.802 111.624 239.509 112.066 233.417 113.842C228.774 115.194 224.29 116.953 220.641 120.267C214.101 126.207 210.875 133.591 211.056 142.441C211.195 149.259 212.957 155.75 215.039 162.174C216.421 166.443 218.062 170.632 219.017 175.033C219.69 178.129 220.296 181.232 220.458 184.405C220.484 184.912 220.493 185.426 220.448 185.932C220.388 186.621 220.01 187.069 219.294 187.15C218.584 187.229 218.042 186.835 217.914 186.019C217.727 184.811 217.679 183.578 217.494 182.37C216.679 177.057 215.265 171.895 213.47 166.835C211.388 160.957 209.586 155.003 208.602 148.833C207.2 140.054 208.27 131.744 213.291 124.174C216.45 119.411 220.616 115.859 225.832 113.468C231.682 110.785 237.852 109.458 244.218 108.951C256.54 107.971 268.882 108.153 281.22 108.529C292.704 108.877 304.079 110.353 315.424 112.026C321.992 112.995 328.279 115.011 334.243 117.925C340.265 120.868 345.111 125.219 348.762 130.802C352.297 136.21 353.482 142.249 353.029 148.642C352.733 152.828 351.404 156.723 349.692 160.516C348.707 162.702 347.769 164.912 346.789 167.102C343.938 173.481 342.742 180.242 342.152 187.14C342.01 188.817 341.942 190.501 341.781 192.178C341.707 192.964 341.973 193.382 342.718 193.668C344.347 194.293 345.83 195.202 347.298 196.146C352.371 199.401 356.675 207.295 353.347 215.64C352.123 218.709 350.356 221.446 348.136 223.888C347.638 224.434 347.35 225.029 347.118 225.723C345.13 231.677 343.089 237.611 341.086 243.56C338.188 252.167 335.114 260.718 332.801 269.511C331.462 274.597 330.315 279.72 329.324 284.885C328.293 290.236 328.549 295.517 329.643 300.838C330.785 306.385 331.682 311.984 331.987 317.652C332.066 319.133 332.062 320.614 331.685 322.068C331.268 323.672 330.579 325.105 328.794 325.498C326.989 325.897 325.615 325.013 324.495 323.702C323.655 322.72 323.122 321.561 322.69 320.347C321.367 316.625 320.731 312.745 320.009 308.885C319.746 307.479 319.5 306.067 319.001 304.723C318.403 303.113 317.691 302.756 316.04 303.188C314.892 303.487 313.84 304.028 312.823 304.615C307.098 307.914 301.151 310.757 295.032 313.25C294.607 313.423 294.195 313.638 293.717 313.63C293.149 313.619 292.739 313.367 292.511 312.843C292.276 312.303 292.428 311.818 292.837 311.455C293.136 311.191 293.511 310.99 293.881 310.828C300.16 308.061 306.234 304.895 312.227 301.569C313.303 300.972 314.434 300.491 315.639 300.208C318.345 299.571 320.386 300.551 321.536 303.074C322.392 304.95 322.69 306.982 323.063 308.986C323.661 312.197 324.225 315.414 325.224 318.535C325.534 319.509 325.874 320.471 326.44 321.334C326.725 321.764 327.041 322.166 327.511 322.407C327.943 322.63 328.309 322.547 328.53 322.088C328.821 321.48 328.918 320.825 328.96 320.158C329.128 317.441 328.808 314.754 328.463 312.069C327.885 307.564 327.102 303.089 326.219 298.635C325.322 294.109 325.502 289.601 326.28 285.089C328.411 272.731 331.991 260.766 336.107 248.943C338.171 243.015 340.167 237.065 342.193 231.125C342.351 230.661 342.499 230.196 342.65 229.738C342.287 229.624 342.138 229.771 341.979 229.89C336.124 234.207 329.588 237.218 322.85 239.849C320.413 240.8 317.942 241.627 315.4 242.22C314.382 242.457 313.9 242.941 313.621 243.97C309.917 257.614 305.677 271.101 301.538 284.613C300.642 287.542 299.59 290.42 298.393 293.242C296.148 298.535 292.823 302.971 288.043 306.264C286.947 307.016 285.873 307.803 284.931 308.749C284.055 309.63 283.316 310.604 282.892 311.777C282.571 312.656 282.693 312.837 283.634 312.952C284.911 313.111 286.151 313.381 287.344 313.875C290.249 315.08 291.791 317.21 291.807 320.376C291.818 322.52 291.827 324.664 291.804 326.807C291.743 332.53 291.359 338.231 290.527 343.897C290.349 345.112 290.098 346.312 289.563 347.427C288.417 349.819 286.002 349.996 284.489 347.809C283.896 346.952 283.621 345.966 283.403 344.965C282.686 341.661 282.473 338.294 282.254 334.934C281.861 328.924 281.291 322.931 280.616 316.946C280.494 315.862 280.48 315.839 279.384 315.942C276.221 316.241 273.108 316.87 269.978 317.385C263.232 318.491 256.449 318.878 249.622 318.609C246.758 318.495 243.893 318.37 241.029 318.269C235.952 318.09 230.934 317.385 225.929 316.593C218.955 315.491 211.976 314.397 205.11 312.724C197.903 310.97 190.75 309.011 183.788 306.424C182.398 305.908 182.578 305.71 181.849 307.155C179.709 311.393 177.638 315.664 175.514 319.912C174.166 322.607 172.701 325.241 171.133 327.816C170.308 329.17 169.43 330.499 168.258 331.582C167.209 332.552 166.031 333.305 164.521 332.646C162.971 331.97 162.637 330.604 162.677 329.088C162.722 327.286 163.15 325.55 163.729 323.855C165.609 318.346 167.9 312.995 170.076 307.599C170.991 305.326 171.917 303.061 172.728 300.746C174.295 296.268 174.343 291.758 173.244 287.177C172.075 282.307 170.388 277.594 168.944 272.807C167.102 266.692 165.552 260.513 164.666 254.18C164.282 251.446 164.039 248.699 163.948 245.945C163.818 241.96 162.988 238.185 161.23 234.577C159.667 231.371 158.11 228.144 157.292 224.633C156.52 221.319 156.326 217.994 156.752 214.604C157.73 206.835 163.834 202.495 170.203 201.852C171.166 201.755 171.952 201.472 172.728 200.928C180.689 195.348 189.473 191.762 199.097 190.275C203.258 189.632 207.447 189.358 211.649 189.84C219.178 190.706 224.384 194.738 227.572 201.501C229.812 206.259 230.328 211.281 229.833 216.452C229.499 219.937 228.627 223.269 226.764 226.65Z" />
			<path
				d="M57.9885 187.069C48.2788 187.06 43.1306 187.479 35.9335 188.892C31.6844 189.728 27.6533 191.171 23.9535 193.448C21.8626 194.736 20.146 196.373 19.2356 198.722C18.2929 201.158 18.7533 202.619 20.947 204.1C22.6411 205.244 24.5633 205.75 26.5464 206.069C30.9513 206.777 35.4081 206.913 39.8457 207.277C44.5885 207.666 49.3471 207.851 54.0734 208.476C58.3536 209.041 61.8734 210.605 63.4163 215.013C63.6004 215.539 63.9797 215.689 64.4909 215.665C65.0015 215.643 65.514 215.643 66.0263 215.63C71.1019 215.504 76.1323 214.88 81.156 214.213C85.3682 213.652 89.5465 212.879 93.5974 211.557C96.8965 210.479 99.917 208.894 102.349 206.364C104.439 204.188 105.136 201.641 104.108 198.754C103.461 196.935 102.059 195.737 100.466 194.744C98.1438 193.296 95.5959 192.389 92.973 191.664C81.306 188.439 69.4063 186.987 57.9885 187.069ZM60.3278 215.462C60.0079 214.127 59.1077 213.271 57.9981 212.603C57.0215 212.016 55.922 211.762 54.8106 211.551C52.2402 211.058 49.6319 210.902 47.0303 210.702C41.3149 210.259 35.5938 209.874 29.8795 209.42C27.5328 209.235 25.2001 208.911 22.9372 208.213C21.2018 207.679 19.6167 206.868 18.2493 205.676C16.0158 203.733 15.325 201.356 16.2264 198.504C17.2852 195.157 19.5045 192.785 22.4219 190.985C26.7446 188.32 31.4817 186.776 36.4486 185.815C43.8779 184.376 51.3882 184.137 58.9255 184.169C70.4 184.215 81.691 185.63 92.7793 188.595C95.5009 189.323 98.1834 190.162 100.676 191.515C101.848 192.152 102.973 192.854 103.979 193.733C108.09 197.316 108.672 203.035 105.326 207.36C103.739 209.41 101.672 210.913 99.4233 212.178C96.0841 214.06 92.4425 215.078 88.7238 215.84C81.1373 217.389 73.4601 218.221 65.7291 218.573C65.5752 218.581 65.4205 218.592 65.2676 218.582C64.6268 218.543 64.338 218.742 64.4541 219.468C64.591 220.322 64.5815 221.199 64.6693 222.06C65.0864 226.198 64.7344 230.325 64.4665 234.447C64.1823 238.828 63.841 243.201 63.6117 247.585C63.0896 257.633 63.1531 267.689 63.0584 277.744C63.054 278.204 63.0783 278.671 62.9963 279.119C62.8518 279.913 62.1962 280.429 61.4959 280.381C60.8204 280.334 60.3324 279.855 60.2033 279.085C60.1608 278.837 60.1637 278.577 60.1665 278.324C60.2758 268.421 60.1172 258.514 60.6336 248.62C60.911 243.32 61.3657 238.032 61.6725 232.733C61.9244 228.401 62.0762 224.064 61.5451 219.735C61.4647 219.079 61.394 218.573 60.5146 218.557C56.0589 218.475 51.6106 218.407 47.1984 219.242C42.6126 220.112 38.9665 222.498 36.0015 225.996C32.6356 229.965 30.1909 234.505 27.9222 239.147C24.0679 247.041 20.9312 255.25 17.2908 263.239C15.6178 266.906 14.0399 270.618 12.4133 274.307C12.0328 275.173 11.4565 275.498 10.7646 275.264C10.1175 275.044 9.75119 274.324 9.95782 273.491C10.1033 272.9 10.3638 272.336 10.5863 271.768C13.6787 263.876 17.3095 256.214 20.5677 248.394C22.7079 243.255 25.0246 238.199 27.6629 233.295C29.2397 230.365 31.0316 227.578 33.084 224.954C37.4661 219.354 43.2229 216.386 50.3027 215.847C53.2168 215.626 56.1287 215.488 59.0483 215.597C59.4519 215.61 59.8653 215.682 60.3278 215.462Z" />
			<path
				d="M107.126 273.02C107.155 273.895 106.781 274.48 106.136 274.662C105.468 274.853 104.843 274.586 104.476 273.897C104.31 273.586 104.214 273.233 104.124 272.891C100.779 260.105 96.935 247.454 93.7248 234.632C92.6219 230.228 91.5735 225.809 90.5005 221.397C90.4524 221.199 90.4042 220.998 90.3884 220.796C90.325 219.979 90.676 219.394 91.3282 219.26C92.0433 219.111 92.5274 219.46 92.8059 220.073C92.9944 220.486 93.0963 220.943 93.2181 221.384C96.1123 231.967 98.7127 242.626 101.733 253.174C103.502 259.355 105.136 265.574 106.827 271.777C106.948 272.219 107.042 272.67 107.126 273.02Z" />
			<path
				d="M474.602 80.3264C474.953 80.2888 475.512 80.2266 476.073 80.1703C478.479 79.9304 480.137 78.5795 481.25 76.548C482.665 73.9703 481.568 70.8132 478.972 69.6934C478.312 69.4088 477.707 69.4174 477.049 69.6775C475.744 70.1948 475.103 71.2929 474.569 72.4618C473.618 74.5309 473.227 76.7372 473.07 78.9898C472.979 80.2917 473.05 80.3538 474.602 80.3264ZM357.137 9.22479C356.98 6.60522 355.876 4.43936 353.335 3.47272C351.2 2.66071 349.23 3.04068 347.24 3.79059C345.523 4.43646 344.395 5.69785 343.624 7.33057C343.144 8.34198 343.175 9.32883 343.765 10.2434C344.342 11.1378 344.942 12.0236 345.726 12.7749C347.8 14.7587 350.143 16.3755 352.591 17.8595C353.239 18.2525 353.625 18.1311 353.947 17.5272C354.902 15.734 356.027 14.0204 356.573 12.0294C356.828 11.0959 357.092 10.1654 357.137 9.22479ZM465.798 255.818C461.731 255.113 457.912 255.102 454.064 256.08C451.16 256.818 448.351 257.741 445.958 259.546C443.913 261.089 442.079 262.875 441.4 265.509C440.857 267.609 441.708 269.377 443.676 270.256C448.994 272.621 453.58 270.822 457.807 267.637C459.757 266.168 461.314 264.232 462.687 262.177C463.998 260.214 464.887 258.075 465.798 255.818ZM310.733 44.9396C311.025 44.7431 311.204 44.6477 311.354 44.5177C313.935 42.2737 316.605 40.1382 319.218 37.9362C322.147 35.4683 324.95 32.8545 327.832 30.3317C330.103 28.3421 332.245 26.2254 334.242 23.9699C335.358 22.7085 336.428 21.3951 337.206 19.891C337.714 18.9113 337.506 18.5573 336.425 18.6166C335.096 18.6859 333.778 18.9128 332.512 19.3361C328.588 20.6524 324.782 22.2447 321.037 24.0132C317.2 25.8237 313.744 28.1428 310.81 31.1785C309.239 32.8069 308.094 34.7083 307.975 37.1155C307.83 40.0804 308.748 42.6162 310.733 44.9396ZM357.118 24.2806C357.108 24.4583 357.066 24.61 357.096 24.7473C357.861 28.358 357.98 32.0237 358.179 35.6966C358.437 40.4734 357.941 45.178 357.176 49.8594C356.554 53.6465 355.066 57.0983 352.349 59.9274C352.103 60.1846 351.889 60.4909 351.602 60.6903C349.143 62.4025 346.536 63.7029 343.456 63.9312C338.703 64.2838 334.218 63.3706 329.836 61.5688C324.459 59.3581 319.488 56.4496 314.764 53.1075C313.187 51.9921 311.804 50.6021 310.307 49.3147C309.419 49.7352 308.677 50.3753 307.952 51.0023C305.939 52.7405 303.73 54.2186 301.601 55.7979C299.144 57.6214 296.711 59.4809 294.129 61.1512C292.249 62.3678 290.323 63.5396 288.537 64.9079C288.126 65.2215 287.679 65.457 287.136 65.4541C286.023 65.4512 285.476 64.5944 285.927 63.5815C286.153 63.073 286.584 62.8186 287.021 62.5528C289.998 60.751 292.788 58.6862 295.506 56.5218C296.944 55.3775 298.522 54.4325 299.992 53.3243C302.482 51.4488 304.837 49.3942 307.445 47.6762C307.656 47.5375 307.836 47.3497 308.014 47.1705C308.256 46.9263 308.311 46.711 308.045 46.3917C306.884 44.9988 306.205 43.3545 305.547 41.6828C304.52 39.0603 304.679 36.4668 305.66 33.9209C306.453 31.8604 307.695 30.0514 309.255 28.4548C311.71 25.9393 314.605 24.0407 317.676 22.395C320.196 21.0454 322.833 19.9372 325.442 18.7683C328.024 17.6095 330.733 16.8885 333.389 15.9898C334.831 15.5028 336.393 15.3526 337.937 15.7355C340.092 16.2715 341.024 17.8623 340.421 19.995C339.833 22.0742 338.399 23.6433 337.106 25.2732C336.161 26.4652 335.054 27.5402 333.955 28.6037C331.02 31.4458 328.065 34.2705 324.965 36.9363C321.482 39.9345 317.977 42.9037 314.471 45.8744C313.928 46.3339 313.331 46.7269 312.716 47.1835C314.912 49.6398 317.518 51.5138 320.272 53.1668C322.196 54.3212 324.113 55.5003 326.12 56.5261C329.322 58.1632 332.625 59.5041 336.1 60.4201C339.279 61.2581 342.457 61.3535 345.653 60.4721C348.901 59.5763 351.012 57.4176 352.477 54.5177C353.787 51.9285 354.395 49.1254 354.716 46.2848C355.299 41.1583 355.522 36.0203 354.87 30.8692C354.626 28.9475 354.576 26.9998 354.161 25.0984C353.967 24.204 353.722 23.3183 353.539 22.421C353.445 21.9673 353.151 21.7318 352.789 21.5165C350.544 20.1857 348.435 18.6599 346.327 17.1226C344.743 15.9696 343.31 14.6403 342.095 13.1448C339.451 9.88513 339.709 6.17175 342.944 3.18948C345.968 0.402313 349.506 -0.747803 353.561 0.503479C356.806 1.50476 359.13 3.51605 359.863 6.96066C360.23 8.68585 359.979 10.3995 359.492 12.1016C358.853 14.3383 357.711 16.325 356.577 18.3204C355.808 19.6757 355.799 19.6844 357.17 20.5325C360.869 22.8212 364.761 24.7603 368.596 26.8004C372.026 28.6239 375.503 30.3621 378.901 32.2433C385.339 35.8122 391.723 39.4794 398.15 43.0641C404.311 46.5015 410.518 49.8551 416.669 53.3098C419.744 55.0379 422.756 56.8758 425.762 58.7209C433.477 63.4558 441.323 67.9653 449.409 72.0356C455.166 74.934 461.088 77.4799 467.278 79.3308C470.174 80.1978 470.102 80.4622 470.273 77.1721C470.431 74.1552 471.226 71.2423 473.18 68.9305C475.851 65.7647 480.291 65.3891 483.137 69.2412C487.419 75.0366 483.069 81.3147 478.45 82.6627C476.907 83.1121 475.379 83.4199 473.789 83.3938C473.053 83.3823 472.787 83.6583 472.813 84.3807C472.908 87.0841 472.967 89.7889 473.045 92.4938C473.056 92.8506 473.115 93.2061 473.118 93.5616C473.163 99.2746 473.157 104.989 473.258 110.702C473.386 117.792 473.398 124.884 473.486 131.975C473.515 134.471 473.505 136.969 473.558 139.464C473.645 143.546 473.577 147.634 473.812 151.707C474.002 154.971 473.866 158.241 474.106 161.49C474.347 164.754 474.189 168.022 474.408 171.275C474.603 174.188 474.416 177.083 474.402 179.988C474.383 184.12 474.137 188.249 474.131 192.376C474.124 196.05 473.811 199.712 473.848 203.377C473.885 207.107 473.537 210.817 473.541 214.535C473.544 217.295 473.242 220.028 473.171 222.775C473.031 228.237 472.467 233.665 472.032 239.102C471.708 243.17 470.977 247.192 470.122 251.19C469.626 253.505 469.12 253.206 471.715 253.907C476.079 255.087 480.282 256.682 484.11 259.121C485.746 260.162 487.315 261.317 488.847 262.504C491.192 264.319 493.486 266.211 495.59 268.292C497.25 269.936 498.836 271.712 499.714 273.937C500.365 275.58 499.949 276.243 498.214 276.694C495.588 277.375 492.909 277.736 490.223 278.122C483.071 279.147 475.863 279.47 468.671 279.993C467.548 280.075 466.42 280.085 465.294 280.118C460.844 280.243 456.401 280.455 451.948 280.546C448.512 280.615 445.103 280.341 441.679 280.27C436.174 280.157 430.81 279.035 425.387 278.335C424.575 278.228 423.775 278.019 423.039 277.646C422.372 277.312 422.111 276.688 422.289 275.987C422.465 275.308 422.924 274.944 423.617 274.936C424.023 274.931 424.439 274.977 424.833 275.071C431.287 276.586 437.867 277.197 444.459 277.483C451.616 277.794 458.782 277.496 465.935 277.054C466.956 276.992 467.981 276.935 469.004 276.93C473.154 276.904 477.286 276.482 481.404 276.091C485.777 275.678 490.187 275.489 494.515 274.642C495.104 274.528 495.686 274.394 496.408 274.241C495.757 273.06 495.054 272.065 494.211 271.188C489.71 266.519 484.643 262.586 478.828 259.663C475.988 258.234 472.992 257.217 469.91 256.412C469.003 256.175 468.777 256.531 468.5 257.237C467.442 259.954 466.214 262.575 464.436 264.93C462.414 267.61 460.007 269.822 457.196 271.673C454.721 273.306 451.942 273.954 449.119 274.326C446.24 274.703 443.436 273.911 441.11 272.245C438.836 270.617 437.611 268.282 438.301 265.318C438.663 263.762 439.237 262.297 440.228 261.021C441.779 259.03 443.576 257.383 445.817 256.109C450.968 253.181 456.511 252.183 462.333 252.324C463.406 252.349 464.474 252.531 465.543 252.632C466.732 252.745 466.748 252.745 467.049 251.54C467.681 249.013 468.086 246.448 468.365 243.859C468.732 240.461 469.358 237.077 469.515 233.67C469.742 228.781 470.347 223.915 470.357 219.013C470.363 216.464 470.745 213.914 470.707 211.368C470.644 207.085 471.138 202.818 470.97 198.534C470.921 197.264 471.105 195.987 471.138 194.712C471.268 189.814 471.422 184.918 471.49 180.019C471.542 176.294 471.629 172.559 471.423 168.845C471.242 165.582 471.387 162.314 471.129 159.064C470.876 155.903 471.018 152.743 470.855 149.587C470.509 142.86 470.621 136.127 470.513 129.396C470.458 126.028 470.61 122.663 470.481 119.301C470.222 112.57 470.358 105.833 470.171 99.1041C470.031 94.1091 470.18 89.1113 469.999 84.1163C469.967 83.2132 469.689 82.8867 468.844 82.7075C462.336 81.3349 456.314 78.6503 450.338 75.8472C444.314 73.021 438.527 69.7541 432.789 66.4034C427.227 63.1567 421.746 59.7713 416.169 56.5507C411.476 53.843 406.691 51.2957 401.956 48.6602C398.115 46.5246 394.277 44.379 390.454 42.2116C383.117 38.0503 375.787 33.8703 368.283 30.0197C364.826 28.2453 361.417 26.3829 357.976 24.5825C357.715 24.4453 357.48 24.2358 357.118 24.2806Z" />
			<path
				d="M309.901 81.5906C309.852 80.7973 310.085 80.3928 310.283 79.981C313.089 74.0974 315.964 68.2485 319.138 62.5513C319.288 62.284 319.411 62.0008 319.585 61.7508C319.988 61.1786 320.535 60.985 321.189 61.2754C321.782 61.5398 322.189 62.3215 321.951 62.9197C321.557 63.9095 321.095 64.8776 320.598 65.8225C318.111 70.5603 315.886 75.4223 313.564 80.2381C313.233 80.9245 312.964 81.6614 312.393 82.1945C311.928 82.628 311.371 82.8664 310.71 82.6179C310.088 82.3809 309.932 81.8651 309.901 81.5906Z" />
			<path
				d="M333.897 85.788C334.329 79.8886 334.761 74.2477 335.938 68.6964C335.992 68.4465 336.013 68.1878 336.095 67.9466C336.379 67.0955 336.98 66.6837 337.679 66.8397C338.393 67.0016 338.744 67.5911 338.617 68.5086C338.457 69.6703 338.172 70.819 338.096 71.985C337.799 76.5639 337.074 81.1051 336.882 85.6912C336.867 85.9946 336.877 86.3111 336.795 86.5986C336.584 87.3456 335.998 87.6332 335.279 87.6519C334.593 87.6693 334.029 87.165 333.906 86.444C333.855 86.1478 333.897 85.8343 333.897 85.788Z" />
			<path
				d="M57.7575 169.898C60.1739 170.191 61.6741 168.831 62.6904 166.731C63.1134 165.855 63.3682 164.916 63.5776 163.972C63.8268 162.852 63.7266 162.717 62.5698 162.766C59.7334 162.889 57.0158 163.543 54.4272 164.7C54.0111 164.885 53.6119 165.134 53.2525 165.413C52.0975 166.307 52.0238 167.528 53.0544 168.557C53.5706 169.07 54.2133 169.385 54.9142 169.576C55.8059 169.818 56.7158 169.938 57.7575 169.898ZM3.52053 121.536C3.60262 122.251 3.93948 122.583 4.19823 122.95C6.91185 126.797 9.91819 130.4 13.155 133.817C17.8049 138.726 23.2995 142.332 29.6757 144.625C34.0764 146.207 38.6069 147.212 43.2325 147.81C47.4674 148.357 51.6967 148.343 55.9078 147.489C58.9209 146.876 61.8496 145.98 64.7712 145.046C66.0858 144.624 66.0959 144.622 66.114 143.261C66.1197 142.88 66.2726 142.451 65.8779 142.113C64.6806 142.322 63.473 142.523 62.2669 142.744C59.2351 143.297 58.8009 143.111 57.1081 140.486C56.9139 140.185 56.7299 139.879 56.5288 139.583C54.8293 137.09 52.9988 134.705 50.7624 132.65C45.718 128.016 39.7466 125.089 33.1887 123.346C27.4761 121.829 21.5953 121.426 15.7101 121.234C11.6761 121.101 7.64899 121.439 3.52053 121.536ZM133.413 100.426C133.011 100.217 132.607 100.371 132.218 100.443C129.499 100.958 126.752 101.252 124.013 101.612C119.194 102.245 114.348 102.706 109.59 103.739C102.648 105.245 96.2131 107.9 90.6024 112.325C84.4041 117.213 79.1035 122.916 75.0045 129.685C74.581 130.383 74.1819 131.098 73.7176 131.77C72.5655 133.437 71.1857 133.414 70.1101 131.731C69.8621 131.344 69.6457 130.936 69.4035 130.545C67.7915 127.941 66.2346 125.298 64.5345 122.748C63.6767 121.461 63.6756 120.416 64.5119 119.114C66.1582 116.55 68.2078 114.359 70.4113 112.291C73.0213 109.839 75.7191 107.48 78.2572 104.959C87.9851 95.2981 91.7093 83.5468 90.2655 70.0559C90.1268 68.7584 90.0799 67.4291 89.6059 66.1648C89.0154 66.1706 88.6248 66.5347 88.2047 66.7948C84.9617 68.8046 82.0845 71.2436 79.5849 74.1204C73.0835 81.5977 68.9863 90.3046 66.4198 99.7917C65.1645 104.433 64.4739 109.182 63.6767 113.911C63.5833 114.467 63.4757 115.019 63.217 115.522C62.9123 116.118 62.4159 116.446 61.7263 116.393C61.0967 116.35 60.6891 115.989 60.4824 115.412C60.3806 115.125 60.304 114.826 60.2532 114.527C59.9417 112.715 59.6161 110.909 59.3416 109.092C58.6662 104.602 58.0847 100.091 56.873 95.7027C54.1272 85.7546 49.398 76.9596 41.6292 69.9634C41.3584 69.7178 41.1716 69.2439 40.6015 69.4274C40.6015 70.1354 40.5733 70.8477 40.6055 71.5571C40.8365 76.4582 41.4309 81.3188 42.2502 86.1534C43.0429 90.8175 44.5036 95.2576 46.7529 99.4334C49.0799 103.755 51.6474 107.929 54.4981 111.927C57.377 115.969 60.642 119.708 63.6625 123.638C66.1849 126.921 68.1353 130.477 68.7484 134.637C68.8741 135.495 68.9268 136.363 69.0315 137.224C69.1758 138.427 69.1844 138.435 70.3167 138.188C71.466 137.935 72.6125 137.669 73.7573 137.399C82.9179 135.229 92.0716 133.042 100.915 129.754C111.12 125.962 119.815 120.078 126.506 111.413C129.106 108.046 131.123 104.307 133.391 100.729C133.438 100.654 133.407 100.532 133.413 100.426ZM130.005 159.093C128.332 156.833 126.425 154.855 124.153 153.253C117.815 148.782 110.977 145.447 103.27 144.026C97.62 142.982 91.998 142.621 86.3873 144.216C86.0448 144.315 85.691 144.417 85.3382 144.427C84.7256 144.446 84.2257 144.167 84.002 143.585C83.784 143.013 83.9284 142.477 84.3757 142.042C84.7183 141.712 85.1485 141.553 85.5975 141.432C89.436 140.402 93.3256 139.964 97.3042 140.275C107.676 141.081 117.015 144.641 125.478 150.616C128.528 152.769 130.979 155.489 133.229 158.418C133.385 158.62 133.529 158.834 133.643 159.061C134.354 160.458 133.839 161.636 132.295 161.939C130.94 162.207 129.564 162.37 128.191 162.524C122.37 163.185 116.544 163.123 110.714 162.589C105.323 162.095 100.095 160.911 95.1317 158.759C88.6135 155.934 83.0991 151.818 79.1206 145.845C78.7837 145.339 78.4735 145.017 77.7901 145.057C74.9603 145.229 72.2201 145.817 69.5156 146.629C68.8571 146.827 68.8673 147.303 68.8135 147.82C68.5458 150.408 68.2756 152.995 67.9739 155.58C67.8369 156.745 67.6501 157.907 67.436 159.06C67.3047 159.768 67.4802 160.061 68.2587 160.113C71.3793 160.328 74.4526 160.873 77.4928 161.6C78.7396 161.9 79.9585 162.28 81.1276 162.806C85.2675 164.667 87.5152 167.761 87.4375 172.389C87.3905 175.208 86.9348 177.978 86.4157 180.737C85.5449 185.349 84.7256 189.974 83.3215 194.468C82.8347 196.029 82.2797 197.564 81.4175 198.969C79.9529 201.352 77.845 202.853 75.0301 202.896C68.3759 202.999 61.7138 203.075 55.1078 202.036C53.8951 201.846 52.7119 201.51 51.5738 201.031C49.2762 200.064 47.8711 198.374 47.3615 195.942C46.8672 193.59 46.6311 191.201 46.2983 188.826C45.4463 182.711 44.6423 176.589 44.2657 170.419C44.2233 169.707 44.1853 168.989 44.225 168.278C44.2759 167.347 44.7611 166.839 45.4847 166.842C46.201 166.843 46.6934 167.333 46.7626 168.279C46.9748 171.181 47.2964 174.071 47.6786 176.955C48.4656 182.873 49.1829 188.8 50.0763 194.705C50.3989 196.839 51.5495 198.096 53.5753 198.683C55.2539 199.167 56.9665 199.457 58.7019 199.609C63.606 200.038 68.5259 199.956 73.4402 200.053C73.6457 200.057 73.8507 200.042 74.0545 200.047C76.6748 200.109 78.3987 198.835 79.4472 196.505C80.6719 193.786 81.3739 190.908 81.9939 188.017C82.9348 183.627 83.8746 179.233 84.37 174.763C84.4549 174.001 84.5303 173.237 84.5371 172.474C84.5671 169.034 83.0878 166.796 79.9104 165.43C77.9684 164.595 75.9048 164.209 73.8495 163.786C71.8408 163.373 69.7969 163.218 67.7689 162.951C66.9396 162.842 66.7045 163.185 66.5574 163.893C66.3507 164.891 66.0846 165.879 65.7715 166.849C65.3611 168.123 64.7088 169.274 63.8199 170.291C62.5529 171.741 61.0016 172.626 59.0586 172.793C57.2525 172.946 55.4661 172.808 53.7479 172.251C52.1485 171.731 50.8049 170.825 50.0027 169.274C48.9043 167.147 49.3487 164.872 51.1916 163.334C52.3053 162.403 53.5961 161.785 54.9662 161.334C57.7008 160.431 60.4909 159.805 63.388 159.811C64.0362 159.812 64.4326 159.688 64.5458 158.947C65.0695 155.515 65.5467 152.079 65.8044 148.616C65.8197 148.418 65.7828 148.217 65.7676 147.96C65.0967 147.826 64.5616 148.172 64.005 148.347C59.9446 149.616 55.8438 150.665 51.575 150.993C47.6089 151.296 43.6984 150.883 39.8061 150.236C34.0719 149.285 28.5506 147.636 23.329 145.047C18.8267 142.818 14.9315 139.783 11.4451 136.206C7.8347 132.503 4.54641 128.526 1.58537 124.284C1.02769 123.486 0.485875 122.677 0.178448 121.748C-0.374696 120.076 0.379435 118.856 2.14474 118.749C9.56151 118.305 16.9794 118.085 24.3922 118.899C29.8058 119.493 35.0927 120.526 40.1599 122.637C48.1978 125.985 54.6917 131.118 59.3087 138.531C59.4447 138.746 59.6021 138.953 59.7153 139.179C60.0889 139.928 60.6212 140.155 61.4676 139.944C62.6577 139.649 63.8737 139.439 65.091 139.285C65.9357 139.178 66.195 138.792 66.1582 137.974C66.0252 134.924 65.3825 132.019 63.9105 129.311C62.3622 126.461 60.3108 123.978 58.2529 121.503C53.7989 116.146 49.8272 110.465 46.2207 104.506C42.1302 97.7486 39.6871 90.4852 38.7388 82.6654C38.1172 77.5418 37.5962 72.4197 37.5652 67.2557C37.5623 66.7471 37.5171 66.2327 37.6915 65.7386C38.0776 64.6404 39.1335 64.2142 40.1611 64.7647C40.4288 64.9077 40.6705 65.1057 40.9045 65.3022C48.2544 71.4704 53.7761 78.9593 57.3441 87.8641C59.4266 93.06 60.693 98.4624 61.5225 103.98C61.6119 104.582 61.6459 105.194 61.9998 105.898C62.464 103.894 62.8689 102.011 63.337 100.144C65.8695 90.0531 70.1327 80.8087 76.8854 72.7968C80.1142 68.9664 83.9217 65.8238 88.2925 63.3632C88.5598 63.2129 88.8275 63.0597 89.1078 62.934C90.5402 62.2939 91.6368 62.7187 92.1678 64.1896C92.6547 65.5392 92.7906 66.9711 93.003 68.3856C94.3827 77.5794 93.085 86.3831 89.1514 94.8068C87.2094 98.9696 84.5796 102.651 81.3881 105.947C79.1812 108.226 76.8174 110.341 74.4809 112.482C72.3306 114.452 70.1553 116.396 68.3549 118.707C67.9795 119.189 67.654 119.711 67.2877 120.202C66.9339 120.675 66.969 121.082 67.2934 121.589C68.7173 123.832 70.0942 126.103 71.4915 128.363C71.5946 128.528 71.671 128.73 71.9727 128.786C72.3986 128.629 72.5275 128.152 72.7568 127.782C76.9012 121.049 82.209 115.353 88.3502 110.403C94.745 105.25 102.118 102.242 110.122 100.663C115.098 99.6819 120.143 99.1632 125.172 98.5477C128.63 98.1243 132.057 97.5348 135.478 96.8947C135.829 96.8297 136.183 96.7256 136.535 96.7256C138.026 96.7271 138.753 97.9365 138.034 99.2354C137.765 99.7238 137.393 100.157 137.06 100.611C135.665 102.505 134.429 104.505 133.252 106.538C125.98 119.098 115.31 127.545 101.749 132.54C92.8954 135.801 83.7519 138.018 74.5923 140.185C73.0995 140.538 71.5962 140.853 70.1027 141.204C69.2477 141.405 68.7071 142.55 69.0893 143.328C69.2705 143.698 69.6091 143.578 69.8949 143.508C70.8405 143.284 71.7757 143.017 72.7241 142.809C74.6292 142.39 76.57 142.235 78.5103 142.095C79.6342 142.011 80.4709 142.391 81.0596 143.41C83.5253 147.672 87.0979 150.838 91.2139 153.443C96.5427 156.817 102.447 158.597 108.642 159.424C115.42 160.325 122.22 160.393 129.012 159.482C129.306 159.441 129.632 159.506 130.005 159.093Z" />
		</symbol>
	</defs>
</svg>
